# xmcd CD database file
#
# Track frame offsets:
#	150
#	10868
#	25626
#	42371
#	50627
#	63750
#	77930
#	93896
#	103706
#	120867
#	137050
#	151165
#
# Disc length: 2125 seconds
#
# Revision: 0
# Processed by: cddbd v1.5.1PL0 Copyright (c) Steve Scherf et al.
# Submitted via: CDex 1.50
#
DISCID=88084b0c
DTITLE=Marshall Hole - Marshall Hole
DYEAR=1900
DGENRE=Country
TTITLE0=J'ai Chialé
TTITLE1=Country Bar Man
TTITLE2=J'ai juste Envie de Faire La Fête
TTITLE3=Got to Get Drunk
TTITLE4=Sans Argent
TTITLE5=Relève ta Tête
TTITLE6=Sally Ann
TTITLE7=Cinglé
TTITLE8=L'amour du Lard ou du Cochon
TTITLE9=Les Bonnes Manières
TTITLE10=Lendemain Matin Blues
TTITLE11=Tom Dooley
EXTD=
EXTT0=
EXTT1=
EXTT2=
EXTT3=
EXTT4=
EXTT5=
EXTT6=
EXTT7=
EXTT8=
EXTT9=
EXTT10=
EXTT11=
PLAYORDER=
